<?xml version="1.0" standalone="no"?><!DOCTYPE svg PUBLIC "-//W3C//DTD SVG 1.1//EN" "http://www.w3.org/Graphics/SVG/1.1/DTD/svg11.dtd"><svg class="icon" width="200px" height="200.00px" viewBox="0 0 1024 1024" version="1.1" xmlns="http://www.w3.org/2000/svg"><path fill="#333333" d="M316.509091 316.509091h72.145454v72.145454h-72.145454zM425.890909 425.890909h72.145455v72.145455h-72.145455zM316.509091 535.272727h72.145454v72.145455h-72.145454zM316.509091 425.890909h72.145454v72.145455h-72.145454zM425.890909 535.272727h72.145455v72.145455h-72.145455zM425.890909 316.509091h72.145455v72.145454h-72.145455zM968.145455 214.109091C930.909091 146.618182 877.381818 93.090909 809.890909 55.854545 742.4 18.618182 663.272727 0 542.254545 0h-62.836363c-118.690909 0-197.818182 18.618182-265.309091 55.854545C146.618182 93.090909 93.090909 146.618182 55.854545 214.109091 18.618182 281.6 0 360.727273 0 481.745455v62.836363c0 118.690909 18.618182 197.818182 55.854545 265.309091C93.090909 877.381818 146.618182 930.909091 214.109091 968.145455c67.490909 37.236364 146.618182 55.854545 265.309091 55.854545h62.836363c118.690909 0 197.818182-18.618182 265.309091-55.854545 67.490909-37.236364 121.018182-90.763636 158.254546-158.254546 37.236364-67.490909 55.854545-146.618182 55.854545-265.309091v-62.836363c2.327273-121.018182-16.290909-200.145455-53.527272-267.636364zM535.272727 791.272727H279.272727V297.890909c0-9.309091 9.309091-18.618182 18.618182-18.618182h218.763636c9.309091 0 18.618182 9.309091 18.618182 18.618182V791.272727z m256 0h-37.236363v-109.381818h-109.381819V791.272727h-72.145454v-200.145454c0-9.309091 9.309091-18.618182 18.618182-18.618182h183.854545c9.309091 0 18.618182 9.309091 18.618182 18.618182V791.272727z m-18.618182-256h-183.854545c-9.309091 0-18.618182-9.309091-18.618182-18.618182s9.309091-18.618182 18.618182-18.618181h183.854545c9.309091 0 18.618182 9.309091 18.618182 18.618181s-9.309091 18.618182-18.618182 18.618182z" /></svg>