<?xml version="1.0" standalone="no"?><!DOCTYPE svg PUBLIC "-//W3C//DTD SVG 1.1//EN" "http://www.w3.org/Graphics/SVG/1.1/DTD/svg11.dtd"><svg class="icon" width="200px" height="200.00px" viewBox="0 0 1024 1024" version="1.1" xmlns="http://www.w3.org/2000/svg"><path fill="#333333" d="M968.145455 214.109091C930.909091 146.618182 877.381818 93.090909 809.890909 55.854545 742.4 18.618182 663.272727 0 542.254545 0h-62.836363c-118.690909 0-197.818182 18.618182-265.309091 55.854545C146.618182 93.090909 93.090909 146.618182 55.854545 214.109091 18.618182 281.6 0 360.727273 0 481.745455v62.836363c0 118.690909 18.618182 197.818182 55.854545 265.309091C93.090909 877.381818 146.618182 930.909091 214.109091 968.145455c67.490909 37.236364 146.618182 55.854545 265.309091 55.854545h62.836363c118.690909 0 197.818182-18.618182 265.309091-55.854545 67.490909-37.236364 121.018182-90.763636 158.254546-158.254546 37.236364-67.490909 55.854545-146.618182 55.854545-265.309091v-62.836363c2.327273-121.018182-16.290909-200.145455-53.527272-267.636364z m-207.127273 225.745454L674.909091 525.963636v211.781819c0 11.636364-9.309091 23.272727-23.272727 23.272727H372.363636c-11.636364 0-23.272727-9.309091-23.272727-23.272727v-211.781819l-86.109091-86.109091c-9.309091-9.309091-9.309091-23.272727 0-32.581818l97.745455-97.745454c4.654545-4.654545 9.309091-6.981818 16.290909-6.981818s11.636364 2.327273 16.290909 6.981818l60.509091 60.509091h116.363636l60.509091-60.509091c4.654545-4.654545 9.309091-6.981818 16.290909-6.981818s11.636364 2.327273 16.290909 6.981818l97.745455 97.745454c6.981818 9.309091 6.981818 23.272727 0 32.581818z" /></svg>