<?xml version="1.0" standalone="no"?><!DOCTYPE svg PUBLIC "-//W3C//DTD SVG 1.1//EN" "http://www.w3.org/Graphics/SVG/1.1/DTD/svg11.dtd"><svg class="icon" width="200px" height="200.00px" viewBox="0 0 1024 1024" version="1.1" xmlns="http://www.w3.org/2000/svg"><path fill="#333333" d="M968.145455 214.109091C930.909091 146.618182 877.381818 93.090909 809.890909 55.854545 742.4 18.618182 663.272727 0 542.254545 0h-62.836363c-118.690909 0-197.818182 18.618182-265.309091 55.854545C146.618182 93.090909 93.090909 146.618182 55.854545 214.109091 18.618182 281.6 0 360.727273 0 481.745455v62.836363c0 118.690909 18.618182 197.818182 55.854545 265.309091C93.090909 877.381818 146.618182 930.909091 214.109091 968.145455c67.490909 37.236364 146.618182 55.854545 265.309091 55.854545h62.836363c118.690909 0 197.818182-18.618182 265.309091-55.854545 67.490909-37.236364 121.018182-90.763636 158.254546-158.254546 37.236364-67.490909 55.854545-146.618182 55.854545-265.309091v-62.836363c2.327273-121.018182-16.290909-200.145455-53.527272-267.636364z m-381.672728 27.927273c6.981818 2.327273 11.636364 2.327273 13.963637 4.654545 55.854545 18.618182 104.727273 55.854545 139.636363 104.727273 2.327273 2.327273 2.327273 4.654545 6.981818 9.309091 2.327273 2.327273 0 4.654545-2.327272 6.981818l-4.654546 4.654545c-16.290909 11.636364-37.236364 20.945455-65.163636 25.6-2.327273 0-4.654545 0-6.981818 2.327273-2.327273 0-4.654545 0-6.981818-4.654545v-4.654546c-13.963636-58.181818-39.563636-107.054545-76.8-144.290909v-2.327273c0-2.327273 0-2.327273 2.327272-2.327272z m-60.509091 158.254545v-153.6c0-2.327273 0-2.327273 2.327273-2.327273h4.654546c2.327273 0 2.327273 2.327273 4.654545 2.327273 46.545455 34.909091 76.8 83.781818 93.090909 144.290909 0 2.327273 0 4.654545 2.327273 6.981818v4.654546c0 2.327273-2.327273 2.327273-2.327273 2.327273h-4.654545c-25.6 2.327273-53.527273 4.654545-83.781819 6.981818H535.272727c-2.327273 0-2.327273 0-4.654545-2.327273s-2.327273-2.327273-2.327273-4.654545v-4.654546z m0 160.581818v-114.036363c0-2.327273 2.327273-4.654545 4.654546-4.654546h9.309091c39.563636-2.327273 67.490909-4.654545 88.436363-6.981818h4.654546c2.327273 0 4.654545 2.327273 4.654545 4.654545 0 4.654545 0 6.981818 2.327273 9.309091 2.327273 20.945455 4.654545 41.890909 4.654545 62.836364 0 20.945455 0 39.563636-2.327272 58.181818v4.654546c0 2.327273 0 2.327273-2.327273 2.327272 0 0-2.327273 2.327273-4.654545 0h-2.327273c-27.927273-4.654545-60.509091-4.654545-95.418182-6.981818h-4.654545c-2.327273 0-4.654545-2.327273-4.654546-4.654545v-4.654546zM279.272727 358.4c0-2.327273 2.327273-2.327273 2.327273-4.654545 34.909091-51.2 83.781818-88.436364 144.290909-107.054546 2.327273 0 6.981818-2.327273 13.963636-4.654545h2.327273v2.327272c-37.236364 37.236364-65.163636 86.109091-79.127273 146.618182v2.327273c0 2.327273-2.327273 4.654545-6.981818 4.654545h-4.654545c-27.927273-6.981818-51.2-16.290909-67.490909-27.927272l-4.654546-4.654546c-2.327273-2.327273-2.327273-4.654545 0-6.981818z m-18.618182 262.981818H256c-2.327273 0-2.327273-2.327273-2.327273-2.327273v-2.327272c-13.963636-32.581818-20.945455-67.490909-20.945454-104.727273 0-39.563636 6.981818-76.8 23.272727-109.381818 0-2.327273 2.327273-4.654545 2.327273-6.981818 0-2.327273 2.327273-2.327273 2.327272-2.327273h4.654546l2.327273 2.327273c18.618182 13.963636 44.218182 23.272727 76.8 32.581818 2.327273 0 4.654545 0 6.981818 2.327273 2.327273 0 4.654545 2.327273 4.654545 4.654545v6.981818c-2.327273 23.272727-4.654545 46.545455-4.654545 69.818182s0 44.218182 2.327273 62.836364v4.654545c0 2.327273-2.327273 4.654545-4.654546 4.654546h-4.654545c-32.581818 11.636364-60.509091 20.945455-83.781819 37.236363z m176.872728 155.927273c0 2.327273-2.327273 2.327273-4.654546 2.327273-67.490909-18.618182-123.345455-62.836364-158.254545-121.018182 0-2.327273-2.327273-2.327273-2.327273-4.654546-2.327273-2.327273 0-4.654545 2.327273-6.981818l6.981818-4.654545c16.290909-11.636364 39.563636-20.945455 67.490909-25.6 2.327273 0 4.654545 0 6.981818-2.327273h4.654546l2.327272 2.327273c0 2.327273 0 4.654545 2.327273 6.981818 13.963636 58.181818 39.563636 107.054545 74.472727 146.618182 0 4.654545 0 6.981818-2.327272 6.981818z m60.509091-4.654546c0 2.327273 0 4.654545-2.327273 4.654546h-4.654546c-2.327273 0-2.327273-2.327273-4.654545-2.327273-46.545455-34.909091-76.8-86.109091-93.090909-151.272727 0-2.327273 0-4.654545-2.327273-6.981818v-4.654546l2.327273-2.327272h6.981818c25.6-2.327273 53.527273-4.654545 86.109091-4.654546h4.654545c2.327273 0 2.327273 0 4.654546 2.327273 0 0 2.327273 2.327273 2.327273 4.654545v160.581818z m0-204.8c0 2.327273-2.327273 4.654545-4.654546 4.654546H488.727273c-34.909091 0-67.490909 2.327273-95.418182 6.981818h-9.309091l-2.327273-2.327273v-4.654545c-2.327273-18.618182-2.327273-37.236364-2.327272-58.181818 0-23.272727 2.327273-44.218182 4.654545-65.163637V442.181818c0-2.327273 0-2.327273 2.327273-2.327273h11.636363c27.927273 4.654545 55.854545 4.654545 90.763637 6.981819h6.981818c2.327273 0 4.654545 2.327273 4.654545 4.654545v116.363636z m0-160.581818c0 2.327273 0 2.327273-2.327273 4.654546s-2.327273 2.327273-4.654546 2.327272H488.727273c-34.909091 0-65.163636-2.327273-90.763637-6.981818h-4.654545c-2.327273 0-2.327273 0-2.327273-2.327272v-4.654546-2.327273c16.290909-65.163636 48.872727-114.036364 95.418182-148.945454l2.327273-2.327273h4.654545c2.327273 0 2.327273 2.327273 2.327273 2.327273v158.254545z m41.890909 365.381818c-2.327273 0-2.327273 2.327273-4.654546 4.654546-2.327273 0-4.654545 2.327273-4.654545 0-2.327273 0-2.327273-2.327273-2.327273-4.654546v-165.236363c0-2.327273 0-2.327273 2.327273-4.654546s2.327273-2.327273 4.654545-2.327272h6.981818c30.254545 0 58.181818 2.327273 83.781819 4.654545h6.981818c2.327273 0 2.327273 0 2.327273 2.327273v4.654545c0 2.327273 0 4.654545-2.327273 6.981818-16.290909 67.490909-46.545455 118.690909-93.090909 153.6z m211.781818-118.690909c-2.327273 2.327273-2.327273 4.654545-4.654546 6.981819-34.909091 53.527273-86.109091 95.418182-148.945454 116.363636-2.327273 0-4.654545 2.327273-9.309091 2.327273-2.327273 0-4.654545 0-4.654545-2.327273v-4.654546c37.236364-37.236364 62.836364-86.109091 76.8-146.618181 0-2.327273 0-4.654545 2.327272-6.981819 0-2.327273 2.327273-4.654545 6.981818-4.654545 2.327273 0 4.654545 0 6.981819 2.327273 27.927273 6.981818 51.2 16.290909 67.490909 27.927272l6.981818 4.654546s2.327273 2.327273 0 4.654545z m20.945454-41.890909c0 2.327273-2.327273 2.327273-2.327272 4.654546s-2.327273 2.327273-2.327273 2.327272H761.018182c-20.945455-13.963636-48.872727-25.6-83.781818-32.581818h-4.654546c-2.327273 0-4.654545-2.327273-4.654545-4.654545v-6.981818c2.327273-20.945455 2.327273-41.890909 2.327272-62.836364 0-23.272727-2.327273-44.218182-4.654545-65.163636 0-2.327273 0-6.981818-2.327273-11.636364 0-2.327273 2.327273-4.654545 4.654546-4.654545h4.654545c32.581818-6.981818 58.181818-18.618182 79.127273-32.581819l2.327273-2.327272h4.654545c2.327273 0 2.327273 2.327273 2.327273 2.327272 0 2.327273 2.327273 4.654545 2.327273 6.981819 13.963636 34.909091 23.272727 72.145455 23.272727 109.381818 4.654545 32.581818-2.327273 67.490909-13.963637 97.745454z" /></svg>