<?xml version="1.0" standalone="no"?><!DOCTYPE svg PUBLIC "-//W3C//DTD SVG 1.1//EN" "http://www.w3.org/Graphics/SVG/1.1/DTD/svg11.dtd"><svg class="icon" width="200px" height="200.00px" viewBox="0 0 1024 1024" version="1.1" xmlns="http://www.w3.org/2000/svg"><path fill="#333333" d="M542.254545 609.745455h-58.181818c-4.654545 0-9.309091 2.327273-11.636363 4.654545-4.654545 4.654545-6.981818 9.309091-6.981819 13.963636 0 9.309091 6.981818 18.618182 18.618182 18.618182h58.181818c4.654545 0 9.309091-2.327273 11.636364-4.654545 2.327273-2.327273 4.654545-6.981818 4.654546-11.636364 0-11.636364-6.981818-20.945455-16.29091-20.945454zM542.254545 386.327273h-58.181818c-4.654545 0-9.309091 2.327273-11.636363 4.654545-4.654545 4.654545-6.981818 9.309091-6.981819 13.963637 0 9.309091 6.981818 18.618182 18.618182 18.618181h58.181818c4.654545 0 9.309091-2.327273 11.636364-4.654545 2.327273-2.327273 4.654545-6.981818 4.654546-11.636364 0-11.636364-6.981818-20.945455-16.29091-20.945454zM968.145455 214.109091C930.909091 146.618182 877.381818 93.090909 809.890909 55.854545 742.4 18.618182 663.272727 0 542.254545 0h-62.836363c-118.690909 0-197.818182 18.618182-265.309091 55.854545C146.618182 93.090909 93.090909 146.618182 55.854545 214.109091 18.618182 281.6 0 360.727273 0 481.745455v62.836363c0 118.690909 18.618182 197.818182 55.854545 265.309091C93.090909 877.381818 146.618182 930.909091 214.109091 968.145455c67.490909 37.236364 146.618182 55.854545 265.309091 55.854545h62.836363c118.690909 0 197.818182-18.618182 265.309091-55.854545 67.490909-37.236364 121.018182-90.763636 158.254546-158.254546 37.236364-67.490909 55.854545-146.618182 55.854545-265.309091v-62.836363c2.327273-121.018182-16.290909-200.145455-53.527272-267.636364zM768 698.181818c0 16.290909-13.963636 30.254545-30.254545 30.254546h-11.636364l6.981818 27.927272c2.327273 11.636364-4.654545 25.6-16.290909 27.927273h-6.981818c-11.636364 0-18.618182-6.981818-23.272727-16.290909l-11.636364-41.890909H346.763636l-11.636363 41.890909c-2.327273 9.309091-11.636364 16.290909-23.272728 16.290909h-6.981818c-6.981818-2.327273-11.636364-4.654545-13.963636-11.636364-2.327273-4.654545-4.654545-11.636364-2.327273-18.618181l6.981818-27.927273h-11.636363c-16.290909 0-30.254545-13.963636-30.254546-30.254546v-139.636363c0-16.290909 13.963636-30.254545 30.254546-30.254546h451.490909c16.290909 0 30.254545 13.963636 30.254545 30.254546V698.181818z m0-223.418182c0 16.290909-13.963636 30.254545-30.254545 30.254546H286.254545c-16.290909 0-30.254545-13.963636-30.254545-30.254546v-139.636363c0-16.290909 13.963636-30.254545 30.254545-30.254546h451.49091c16.290909 0 30.254545 13.963636 30.254545 30.254546v139.636363z" /></svg>