<?xml version="1.0" standalone="no"?><!DOCTYPE svg PUBLIC "-//W3C//DTD SVG 1.1//EN" "http://www.w3.org/Graphics/SVG/1.1/DTD/svg11.dtd"><svg class="icon" width="200px" height="200.00px" viewBox="0 0 1024 1024" version="1.1" xmlns="http://www.w3.org/2000/svg"><path fill="#2951e6" d="M474.763636 344.436364h-104.727272c-13.963636 0-25.6 11.636364-25.6 25.6v160.581818c0 2.327273 0 4.654545 2.327272 6.981818 4.654545 6.981818 11.636364 6.981818 18.618182 4.654545l53.527273-34.90909c4.654545-2.327273 9.309091-2.327273 13.963636 0l48.872728 32.581818c2.327273 2.327273 4.654545 2.327273 6.981818 2.327272 6.981818 0 13.963636-6.981818 13.963636-13.963636v-160.581818c-2.327273-11.636364-13.963636-23.272727-27.927273-23.272727zM968.145455 214.109091C930.909091 146.618182 877.381818 93.090909 809.890909 55.854545 742.4 18.618182 663.272727 0 542.254545 0h-62.836363c-118.690909 0-197.818182 18.618182-265.309091 55.854545C146.618182 93.090909 93.090909 146.618182 55.854545 214.109091 18.618182 281.6 0 360.727273 0 481.745455v62.836363c0 118.690909 18.618182 197.818182 55.854545 265.309091C93.090909 877.381818 146.618182 930.909091 214.109091 968.145455c67.490909 37.236364 146.618182 55.854545 265.309091 55.854545h62.836363c118.690909 0 197.818182-18.618182 265.309091-55.854545 67.490909-37.236364 121.018182-90.763636 158.254546-158.254546 37.236364-67.490909 55.854545-146.618182 55.854545-265.309091v-62.836363c2.327273-121.018182-16.290909-200.145455-53.527272-267.636364zM735.418182 698.181818c0 37.236364-30.254545 69.818182-69.818182 69.818182H349.090909c-37.236364 0-69.818182-30.254545-69.818182-69.818182V349.090909c0-37.236364 30.254545-69.818182 69.818182-69.818182h318.836364c37.236364 0 69.818182 30.254545 69.818182 69.818182v349.090909z" /></svg>