<?xml version="1.0" standalone="no"?><!DOCTYPE svg PUBLIC "-//W3C//DTD SVG 1.1//EN" "http://www.w3.org/Graphics/SVG/1.1/DTD/svg11.dtd"><svg class="icon" width="200px" height="200.00px" viewBox="0 0 1024 1024" version="1.1" xmlns="http://www.w3.org/2000/svg"><path fill="#333333" d="M968.145455 214.109091C930.909091 146.618182 877.381818 93.090909 809.890909 55.854545 742.4 18.618182 663.272727 0 542.254545 0h-62.836363c-118.690909 0-197.818182 18.618182-265.309091 55.854545C146.618182 93.090909 93.090909 146.618182 55.854545 214.109091 18.618182 281.6 0 360.727273 0 481.745455v62.836363c0 118.690909 18.618182 197.818182 55.854545 265.309091C93.090909 877.381818 146.618182 930.909091 214.109091 968.145455c67.490909 37.236364 146.618182 55.854545 265.309091 55.854545h62.836363c118.690909 0 197.818182-18.618182 265.309091-55.854545 67.490909-37.236364 121.018182-90.763636 158.254546-158.254546 37.236364-67.490909 55.854545-146.618182 55.854545-265.309091v-62.836363c2.327273-121.018182-16.290909-200.145455-53.527272-267.636364zM484.072727 754.036364c0 16.290909-13.963636 30.254545-30.254545 30.254545-16.290909 0-30.254545-13.963636-30.254546-30.254545v-53.527273c-114.036364-44.218182-179.2-125.672727-188.509091-244.363636v-4.654546c-2.327273-16.290909 11.636364-32.581818 27.927273-32.581818 16.290909-2.327273 32.581818 11.636364 32.581818 27.927273 6.981818 100.072727 60.509091 165.236364 165.236364 200.145454h2.327273c11.636364 4.654545 20.945455 16.290909 20.945454 27.927273v79.127273z m39.563637-160.581819c-9.309091 6.981818-20.945455 6.981818-27.927273 0l-9.309091-9.30909-16.290909-13.963637-4.654546-4.654545-6.981818-6.981818-2.327272-2.327273-4.654546-4.654546-2.327273-2.327272-4.654545-4.654546c-62.836364-58.181818-102.4-102.4-102.4-153.6 0-51.2 39.563636-90.763636 93.090909-90.763636 30.254545 0 58.181818 13.963636 76.8 34.909091 18.618182-20.945455 46.545455-34.909091 76.8-34.909091 51.2 0 93.090909 39.563636 93.090909 90.763636s-39.563636 95.418182-102.4 153.6l-4.654545 4.654546-4.654546 4.654545-6.981818 4.654546-4.654545 2.327272-4.654546 4.654546-6.981818 6.981818-11.636364 11.636364-11.636363 9.30909z m265.309091-134.981818c-9.309091 118.690909-74.472727 200.145455-188.509091 244.363637v53.527272c0 16.290909-13.963636 30.254545-30.254546 30.254546-16.290909 0-30.254545-13.963636-30.254545-30.254546v-76.8c0-13.963636 9.309091-25.6 20.945454-27.927272h2.327273c104.727273-34.909091 158.254545-100.072727 165.236364-200.145455 2.327273-16.290909 16.290909-30.254545 32.581818-27.927273 16.290909 2.327273 30.254545 16.290909 27.927273 32.581819v2.327272z" /></svg>