<?xml version="1.0" standalone="no"?><!DOCTYPE svg PUBLIC "-//W3C//DTD SVG 1.1//EN" "http://www.w3.org/Graphics/SVG/1.1/DTD/svg11.dtd"><svg class="icon" width="200px" height="200.00px" viewBox="0 0 1024 1024" version="1.1" xmlns="http://www.w3.org/2000/svg"><path fill="#333333" d="M968.145455 214.109091C930.909091 146.618182 877.381818 93.090909 809.890909 55.854545 742.4 18.618182 663.272727 0 542.254545 0h-62.836363c-118.690909 0-197.818182 18.618182-265.309091 55.854545C146.618182 93.090909 93.090909 146.618182 55.854545 214.109091 18.618182 281.6 0 360.727273 0 481.745455v62.836363c0 118.690909 18.618182 197.818182 55.854545 265.309091C93.090909 877.381818 146.618182 930.909091 214.109091 968.145455c67.490909 37.236364 146.618182 55.854545 265.309091 55.854545h62.836363c118.690909 0 197.818182-18.618182 265.309091-55.854545 67.490909-37.236364 121.018182-90.763636 158.254546-158.254546 37.236364-67.490909 55.854545-146.618182 55.854545-265.309091v-62.836363c2.327273-121.018182-16.290909-200.145455-53.527272-267.636364zM311.854545 256h397.963637c13.963636 0 23.272727 9.309091 23.272727 23.272727s-9.309091 23.272727-23.272727 23.272728H311.854545c-13.963636 0-23.272727-9.309091-23.272727-23.272728s9.309091-23.272727 23.272727-23.272727zM744.727273 716.8c0 16.290909-18.618182 37.236364-34.909091 37.236364H311.854545c-16.290909 0-34.909091-18.618182-34.90909-37.236364v-172.218182H325.818182v158.254546h372.363636v-158.254546h46.545455v172.218182z m-25.6-188.509091c-39.563636 0-69.818182-30.254545-69.818182-67.490909 0 37.236364-30.254545 67.490909-69.818182 67.490909s-69.818182-30.254545-69.818182-67.490909c0 37.236364-32.581818 67.490909-69.818182 67.490909s-69.818182-30.254545-69.818181-67.490909c0 37.236364-32.581818 67.490909-69.818182 67.490909s-69.818182-30.254545-69.818182-67.490909l46.545455-125.672727h458.472727l48.872727 125.672727c4.654545 37.236364-27.927273 67.490909-65.163636 67.490909z" /></svg>