<?xml version="1.0" standalone="no"?><!DOCTYPE svg PUBLIC "-//W3C//DTD SVG 1.1//EN" "http://www.w3.org/Graphics/SVG/1.1/DTD/svg11.dtd"><svg class="icon" width="200px" height="200.00px" viewBox="0 0 1024 1024" version="1.1" xmlns="http://www.w3.org/2000/svg"><path fill="#fb0" d="M439.854545 507.345455c0-13.963636-11.636364-25.6-25.6-25.6-13.963636 0-25.6 11.636364-25.6 25.6 0 13.963636 11.636364 25.6 25.6 25.6 13.963636 0 25.6-11.636364 25.6-25.6zM614.4 600.436364h-200.145455c-6.981818 0-9.309091 2.327273-9.30909 9.309091 11.636364 58.181818 69.818182 97.745455 128 86.10909 44.218182-9.309091 79.127273-41.890909 88.436363-83.781818 4.654545-9.309091 2.327273-11.636364-6.981818-11.636363zM968.145455 214.109091C930.909091 146.618182 877.381818 93.090909 809.890909 55.854545 742.4 18.618182 663.272727 0 542.254545 0h-62.836363c-118.690909 0-197.818182 18.618182-265.309091 55.854545C146.618182 93.090909 93.090909 146.618182 55.854545 214.109091 18.618182 281.6 0 360.727273 0 481.745455v62.836363c0 118.690909 18.618182 197.818182 55.854545 265.309091C93.090909 877.381818 146.618182 930.909091 214.109091 968.145455c67.490909 37.236364 146.618182 55.854545 265.309091 55.854545h62.836363c118.690909 0 197.818182-18.618182 265.309091-55.854545 67.490909-37.236364 121.018182-90.763636 158.254546-158.254546 37.236364-67.490909 55.854545-146.618182 55.854545-265.309091v-62.836363c2.327273-121.018182-16.290909-200.145455-53.527272-267.636364z m-169.89091 395.636364c-9.309091 34.909091-44.218182 53.527273-81.454545 44.218181-4.654545-2.327273-6.981818 0-9.309091 4.654546-39.563636 55.854545-90.763636 90.763636-158.254545 100.072727-72.145455 9.309091-139.636364-6.981818-193.163637-55.854545-13.963636-13.963636-25.6-30.254545-39.563636-44.218182-2.327273-4.654545-4.654545-4.654545-11.636364-4.654546-41.890909 9.309091-79.127273-18.618182-81.454545-60.509091-2.327273-27.927273 18.618182-55.854545 46.545454-62.836363 6.981818-2.327273 9.309091-4.654545 9.309091-11.636364 4.654545-58.181818 27.927273-109.381818 69.818182-153.6 34.909091-34.909091 79.127273-55.854545 128-62.836363h6.981818c4.654545 0 13.963636 0 13.963637-4.654546 4.654545-6.981818 4.654545-25.6-23.272728-41.890909 37.236364 6.981818 81.454545-6.981818 111.709091 13.963636 13.963636 9.309091 20.945455 23.272727 16.290909 39.563637 9.309091 4.654545 16.290909 6.981818 25.6 9.309091 60.509091 27.927273 95.418182 76.8 111.709091 139.636363 4.654545 20.945455 6.981818 39.563636 9.309091 60.509091 0 4.654545 0 6.981818 4.654546 6.981818 32.581818 13.963636 53.527273 48.872727 44.218181 83.781819zM607.418182 479.418182c-13.963636 0-25.6 11.636364-25.6 25.6 0 13.963636 11.636364 25.6 25.6 27.927273 13.963636 0 25.6-11.636364 25.6-25.6 0-13.963636-11.636364-25.6-25.6-27.927273z" /></svg>