<?xml version="1.0" standalone="no"?><!DOCTYPE svg PUBLIC "-//W3C//DTD SVG 1.1//EN" "http://www.w3.org/Graphics/SVG/1.1/DTD/svg11.dtd"><svg class="icon" width="200px" height="200.00px" viewBox="0 0 1024 1024" version="1.1" xmlns="http://www.w3.org/2000/svg"><path fill="#ff2251" d="M442.181818 360.727273c-25.6 0-44.218182 20.945455-44.218182 44.218182 0 25.6 20.945455 44.218182 44.218182 44.218181s44.218182-20.945455 44.218182-44.218181c0-23.272727-18.618182-44.218182-44.218182-44.218182zM968.145455 214.109091C930.909091 146.618182 877.381818 93.090909 809.890909 55.854545 742.4 18.618182 663.272727 0 542.254545 0h-62.836363c-118.690909 0-197.818182 18.618182-265.309091 55.854545C146.618182 93.090909 93.090909 146.618182 55.854545 214.109091 18.618182 281.6 0 360.727273 0 481.745455v62.836363c0 118.690909 18.618182 197.818182 55.854545 265.309091C93.090909 877.381818 146.618182 930.909091 214.109091 968.145455c67.490909 37.236364 146.618182 55.854545 265.309091 55.854545h62.836363c118.690909 0 197.818182-18.618182 265.309091-55.854545 67.490909-37.236364 121.018182-90.763636 158.254546-158.254546 37.236364-67.490909 55.854545-146.618182 55.854545-265.309091v-62.836363c2.327273-121.018182-16.290909-200.145455-53.527272-267.636364zM414.254545 754.036364H279.272727v-58.181819c0-30.254545 25.6-53.527273 53.527273-53.527272h27.927273c30.254545 0 53.527273 23.272727 53.527272 53.527272v58.181819z m176.872728 0h-134.981818v-58.181819c0-30.254545 23.272727-53.527273 53.527272-53.527272h27.927273c30.254545 0 53.527273 23.272727 53.527273 53.527272v58.181819z m176.872727 0h-134.981818v-58.181819c0-30.254545 25.6-53.527273 53.527273-53.527272h27.927272c30.254545 0 53.527273 23.272727 53.527273 53.527272v58.181819z m0-181.527273c0 18.618182-13.963636 32.581818-32.581818 32.581818h-209.454546v-83.781818L605.090909 418.909091c6.981818-6.981818 6.981818-11.636364 2.327273-16.290909s-9.309091-2.327273-13.963637 4.654545l-79.127272 79.127273c-11.636364-18.618182-32.581818-30.254545-53.527273-30.254545h-32.581818c-34.909091 0-65.163636 30.254545-65.163637 65.163636V605.090909h-48.872727c-18.618182 0-32.581818-13.963636-32.581818-32.581818V311.854545c0-18.618182 13.963636-32.581818 32.581818-32.581818h421.236364c18.618182 0 32.581818 13.963636 32.581818 32.581818v260.654546z" /></svg>