<?xml version="1.0" standalone="no"?><!DOCTYPE svg PUBLIC "-//W3C//DTD SVG 1.1//EN" "http://www.w3.org/Graphics/SVG/1.1/DTD/svg11.dtd"><svg class="icon" width="200px" height="200.00px" viewBox="0 0 1024 1024" version="1.1" xmlns="http://www.w3.org/2000/svg"><path fill="#f40" d="M418.909091 549.236364h20.945454c25.6 0 48.872727 0 60.509091-11.636364 4.654545-4.654545 6.981818-9.309091 6.981819-16.290909 0-6.981818-2.327273-13.963636-6.981819-20.945455-4.654545-6.981818-9.309091-11.636364-16.290909-16.290909-6.981818-4.654545-13.963636-9.309091-23.272727-11.636363l-9.309091-4.654546 9.309091-6.981818c20.945455-13.963636 25.6-41.890909 11.636364-62.836364-6.981818-11.636364-20.945455-18.618182-32.581819-18.618181h-4.654545c-11.636364 0-20.945455 4.654545-30.254545 11.636363-18.618182 16.290909-18.618182 44.218182-2.327273 62.836364l6.981818 6.981818 9.309091 6.981818-9.309091 4.654546c-9.309091 2.327273-16.290909 6.981818-23.272727 11.636363-6.981818 4.654545-11.636364 9.309091-16.290909 16.290909-4.654545 6.981818-6.981818 13.963636-6.981819 20.945455 0 6.981818 2.327273 11.636364 6.981819 16.290909 4.654545 11.636364 25.6 11.636364 48.872727 11.636364zM968.145455 214.109091C930.909091 146.618182 877.381818 93.090909 809.890909 55.854545 742.4 18.618182 663.272727 0 542.254545 0h-62.836363c-118.690909 0-197.818182 18.618182-265.309091 55.854545C146.618182 93.090909 93.090909 146.618182 55.854545 214.109091 18.618182 281.6 0 360.727273 0 481.745455v62.836363c0 118.690909 18.618182 197.818182 55.854545 265.309091C93.090909 877.381818 146.618182 930.909091 214.109091 968.145455c67.490909 37.236364 146.618182 55.854545 265.309091 55.854545h62.836363c118.690909 0 197.818182-18.618182 265.309091-55.854545 67.490909-37.236364 121.018182-90.763636 158.254546-158.254546 37.236364-67.490909 55.854545-146.618182 55.854545-265.309091v-62.836363c2.327273-121.018182-16.290909-200.145455-53.527272-267.636364z m-216.436364 495.709091c0 32.581818-25.6 58.181818-58.181818 58.181818H337.454545c-32.581818 0-58.181818-25.6-58.181818-58.181818v-372.363637c0-32.581818 25.6-58.181818 58.181818-58.181818h358.4c32.581818 0 58.181818 25.6 58.181819 58.181818v372.363637zM649.309091 437.527273H558.545455c-9.309091 0-18.618182-9.309091-18.618182-18.618182s9.309091-18.618182 18.618182-18.618182h90.763636c9.309091 0 18.618182 9.309091 18.618182 18.618182 2.327273 9.309091-6.981818 18.618182-18.618182 18.618182zM649.309091 539.927273H558.545455c-9.309091 0-18.618182-9.309091-18.618182-18.618182s9.309091-18.618182 18.618182-18.618182h90.763636c9.309091 0 18.618182 9.309091 18.618182 18.618182 2.327273 9.309091-6.981818 18.618182-18.618182 18.618182zM649.309091 646.981818H372.363636c-9.309091 0-18.618182-9.309091-18.618181-18.618182s9.309091-18.618182 18.618181-18.618181h276.945455c9.309091 0 18.618182 9.309091 18.618182 18.618181 2.327273 9.309091-6.981818 18.618182-18.618182 18.618182z" /></svg>