<?xml version="1.0" standalone="no"?><!DOCTYPE svg PUBLIC "-//W3C//DTD SVG 1.1//EN" "http://www.w3.org/Graphics/SVG/1.1/DTD/svg11.dtd"><svg class="icon" width="200px" height="200.00px" viewBox="0 0 1024 1024" version="1.1" xmlns="http://www.w3.org/2000/svg"><path fill="#333333" d="M512 423.563636c-65.163636 0-116.363636 53.527273-116.363636 116.363637 0 65.163636 53.527273 116.363636 116.363636 116.363636 65.163636 0 116.363636-53.527273 116.363636-116.363636s-51.2-116.363636-116.363636-116.363637z m0 197.818182c-44.218182 0-79.127273-34.909091-79.127273-79.127273s34.909091-79.127273 79.127273-79.127272 79.127273 34.909091 79.127273 79.127272-34.909091 79.127273-79.127273 79.127273zM968.145455 214.109091C930.909091 146.618182 877.381818 93.090909 809.890909 55.854545 742.4 18.618182 663.272727 0 542.254545 0h-62.836363c-118.690909 0-197.818182 18.618182-265.309091 55.854545C146.618182 93.090909 93.090909 146.618182 55.854545 214.109091 18.618182 281.6 0 360.727273 0 481.745455v62.836363c0 118.690909 18.618182 197.818182 55.854545 265.309091C93.090909 877.381818 146.618182 930.909091 214.109091 968.145455c67.490909 37.236364 146.618182 55.854545 265.309091 55.854545h62.836363c118.690909 0 197.818182-18.618182 265.309091-55.854545 67.490909-37.236364 121.018182-90.763636 158.254546-158.254546 37.236364-67.490909 55.854545-146.618182 55.854545-265.309091v-62.836363c2.327273-121.018182-16.290909-200.145455-53.527272-267.636364z m-188.509091 456.145454c0 18.618182-6.981818 37.236364-20.945455 51.2-13.963636 13.963636-30.254545 20.945455-51.2 20.945455H316.509091c-18.618182 0-37.236364-6.981818-51.2-20.945455-13.963636-13.963636-20.945455-30.254545-20.945455-51.2V421.236364c0-18.618182 6.981818-37.236364 20.945455-51.2 13.963636-13.963636 30.254545-20.945455 51.2-20.945455h62.836364l16.290909-37.236364c4.654545-9.309091 9.309091-16.290909 18.618181-23.272727 9.309091-6.981818 18.618182-9.309091 27.927273-9.309091h141.963637c9.309091 0 18.618182 4.654545 27.927272 9.309091 9.309091 6.981818 16.290909 13.963636 18.618182 23.272727l13.963636 37.236364h62.836364c18.618182 0 37.236364 6.981818 51.2 20.945455s20.945455 30.254545 20.945455 51.2v249.018181z" /></svg>