<?xml version="1.0" standalone="no"?><!DOCTYPE svg PUBLIC "-//W3C//DTD SVG 1.1//EN" "http://www.w3.org/Graphics/SVG/1.1/DTD/svg11.dtd"><svg class="icon" width="200px" height="200.00px" viewBox="0 0 1024 1024" version="1.1" xmlns="http://www.w3.org/2000/svg"><path fill="#ea3600" d="M644.654545 435.2l-83.781818 83.781818-69.818182-69.818182-2.327272-2.327272h-2.327273c-2.327273-2.327273-4.654545-2.327273-6.981818-2.327273h-9.309091c-2.327273 0-6.981818 2.327273-9.309091 4.654545L349.090909 560.872727c-4.654545 4.654545-6.981818 13.963636-4.654545 20.945455 2.327273 6.981818 6.981818 13.963636 13.963636 13.963636 6.981818 2.327273 13.963636 0 20.945455-4.654545l97.745454-97.745455 69.818182 69.818182c4.654545 4.654545 9.309091 6.981818 13.963636 6.981818h2.327273c4.654545 0 9.309091-2.327273 11.636364-6.981818l97.745454-97.745455 2.327273-2.327272c6.981818-9.309091 6.981818-20.945455-2.327273-27.927273-6.981818-9.309091-20.945455-9.309091-27.927273 0zM968.145455 214.109091C930.909091 146.618182 877.381818 93.090909 809.890909 55.854545 742.4 18.618182 663.272727 0 542.254545 0h-62.836363c-118.690909 0-197.818182 18.618182-265.309091 55.854545C146.618182 93.090909 93.090909 146.618182 55.854545 214.109091 18.618182 281.6 0 360.727273 0 481.745455v62.836363c0 118.690909 18.618182 197.818182 55.854545 265.309091C93.090909 877.381818 146.618182 930.909091 214.109091 968.145455c67.490909 37.236364 146.618182 55.854545 265.309091 55.854545h62.836363c118.690909 0 197.818182-18.618182 265.309091-55.854545 67.490909-37.236364 121.018182-90.763636 158.254546-158.254546 37.236364-67.490909 55.854545-146.618182 55.854545-265.309091v-62.836363c2.327273-121.018182-16.290909-200.145455-53.527272-267.636364z m-197.818182 130.327273h-20.945455V651.636364c0 23.272727-18.618182 41.890909-41.890909 41.890909h-67.490909l62.836364 62.836363c4.654545 4.654545 6.981818 13.963636 4.654545 20.945455-2.327273 6.981818-6.981818 13.963636-13.963636 13.963636-6.981818 2.327273-13.963636 0-20.945455-4.654545L581.818182 695.854545h-137.309091l-90.763636 90.763637c-9.309091 6.981818-20.945455 6.981818-30.254546 0-6.981818-6.981818-9.309091-20.945455 0-30.254546l62.836364-62.836363h-67.490909c-23.272727 0-41.890909-18.618182-41.890909-41.890909V344.436364H256c-11.636364 0-20.945455-9.309091-20.945455-20.945455s9.309091-20.945455 20.945455-20.945454h516.654545c11.636364 0 20.945455 9.309091 20.945455 20.945454-2.327273 11.636364-11.636364 20.945455-23.272727 20.945455z" /></svg>