<?xml version="1.0" standalone="no"?><!DOCTYPE svg PUBLIC "-//W3C//DTD SVG 1.1//EN" "http://www.w3.org/Graphics/SVG/1.1/DTD/svg11.dtd"><svg class="icon" width="200px" height="200.00px" viewBox="0 0 1024 1024" version="1.1" xmlns="http://www.w3.org/2000/svg"><path fill="#333333" d="M330.472727 465.454545c-2.327273 2.327273-51.2 48.872727-51.2 128 0 6.981818 4.654545 11.636364 11.636364 11.636364s11.636364-4.654545 11.636364-13.963636c0-27.927273 6.981818-53.527273 20.945454-79.127273 11.636364-18.618182 20.945455-30.254545 20.945455-30.254545 4.654545-4.654545 4.654545-13.963636 0-18.618182 0-2.327273-6.981818-2.327273-13.963637 2.327272zM968.145455 214.109091C930.909091 146.618182 877.381818 93.090909 809.890909 55.854545 742.4 18.618182 663.272727 0 542.254545 0h-62.836363c-118.690909 0-197.818182 18.618182-265.309091 55.854545C146.618182 93.090909 93.090909 146.618182 55.854545 214.109091 18.618182 281.6 0 360.727273 0 481.745455v62.836363c0 118.690909 18.618182 197.818182 55.854545 265.309091C93.090909 877.381818 146.618182 930.909091 214.109091 968.145455c67.490909 37.236364 146.618182 55.854545 265.309091 55.854545h62.836363c118.690909 0 197.818182-18.618182 265.309091-55.854545 67.490909-37.236364 121.018182-90.763636 158.254546-158.254546 37.236364-67.490909 55.854545-146.618182 55.854545-265.309091v-62.836363c2.327273-121.018182-16.290909-200.145455-53.527272-267.636364z m-197.818182 172.218182c-11.636364 0-23.272727-4.654545-32.581818-13.963637l-27.927273 30.254546c11.636364 13.963636 11.636364 32.581818 2.327273 48.872727-11.636364 23.272727-34.909091 62.836364-67.49091 137.309091-67.490909 148.945455-214.109091 228.072727-332.8 139.636364-116.363636-88.436364-95.418182-230.4-20.945454-302.545455 48.872727-46.545455 90.763636-55.854545 200.145454-55.854545 67.490909 0 111.709091-9.309091 137.309091-16.290909 13.963636-4.654545 27.927273-2.327273 39.563637 6.981818l30.254545-25.6c-11.636364-6.981818-18.618182-20.945455-18.618182-34.909091 0-23.272727 18.618182-44.218182 41.890909-44.218182s44.218182 18.618182 44.218182 41.890909c23.272727 0 44.218182 18.618182 44.218182 41.890909 2.327273 25.6-16.290909 44.218182-39.563636 46.545455z" /></svg>