<?xml version="1.0" standalone="no"?><!DOCTYPE svg PUBLIC "-//W3C//DTD SVG 1.1//EN" "http://www.w3.org/Graphics/SVG/1.1/DTD/svg11.dtd"><svg class="icon" width="200px" height="200.00px" viewBox="0 0 1024 1024" version="1.1" xmlns="http://www.w3.org/2000/svg"><path fill="#9d23dd" d="M968.145455 214.109091C930.909091 146.618182 877.381818 93.090909 809.890909 55.854545 742.4 18.618182 663.272727 0 542.254545 0h-62.836363c-118.690909 0-197.818182 18.618182-265.309091 55.854545C146.618182 93.090909 93.090909 146.618182 55.854545 214.109091 18.618182 281.6 0 360.727273 0 481.745455v62.836363c0 118.690909 18.618182 197.818182 55.854545 265.309091C93.090909 877.381818 146.618182 930.909091 214.109091 968.145455c67.490909 37.236364 146.618182 55.854545 265.309091 55.854545h62.836363c118.690909 0 197.818182-18.618182 265.309091-55.854545 67.490909-37.236364 121.018182-90.763636 158.254546-158.254546 37.236364-67.490909 55.854545-146.618182 55.854545-265.309091v-62.836363c2.327273-121.018182-16.290909-200.145455-53.527272-267.636364zM512 791.272727c-48.872727 0-93.090909-11.636364-134.981818-34.909091 109.381818-41.890909 172.218182-72.145455 244.363636-242.036363 20.945455 16.290909 44.218182 23.272727 65.163637 23.272727l-53.527273-186.181818-188.509091 83.781818c18.618182 9.309091 46.545455 20.945455 86.109091 37.236364-58.181818 111.709091-146.618182 169.890909-265.309091 169.890909-20.945455-39.563636-32.581818-86.109091-32.581818-130.327273 0-153.6 125.672727-279.272727 279.272727-279.272727s279.272727 125.672727 279.272727 279.272727-125.672727 279.272727-279.272727 279.272727z" /></svg>