<?xml version="1.0" standalone="no"?><!DOCTYPE svg PUBLIC "-//W3C//DTD SVG 1.1//EN" "http://www.w3.org/Graphics/SVG/1.1/DTD/svg11.dtd"><svg class="icon" width="200px" height="200.00px" viewBox="0 0 1024 1024" version="1.1" xmlns="http://www.w3.org/2000/svg"><path fill="#a0e625" d="M488.727273 570.181818c-32.581818 0-58.181818 25.6-58.181818 58.181818s25.6 58.181818 58.181818 58.181819 58.181818-25.6 58.181818-58.181819-27.927273-58.181818-58.181818-58.181818zM488.727273 456.145455c32.581818 0 58.181818-25.6 58.181818-58.181819s-25.6-58.181818-58.181818-58.181818-58.181818 25.6-58.181818 58.181818 25.6 58.181818 58.181818 58.181819zM372.363636 453.818182c-32.581818 0-58.181818 25.6-58.181818 58.181818s25.6 58.181818 58.181818 58.181818 58.181818-25.6 58.181819-58.181818-25.6-58.181818-58.181819-58.181818zM602.763636 453.818182c-32.581818 0-58.181818 25.6-58.181818 58.181818s25.6 58.181818 58.181818 58.181818 58.181818-25.6 58.181819-58.181818-25.6-58.181818-58.181819-58.181818zM968.145455 214.109091C930.909091 146.618182 877.381818 93.090909 809.890909 55.854545 742.4 18.618182 663.272727 0 542.254545 0h-62.836363c-118.690909 0-197.818182 18.618182-265.309091 55.854545C146.618182 93.090909 93.090909 146.618182 55.854545 214.109091 18.618182 281.6 0 360.727273 0 481.745455v62.836363c0 118.690909 18.618182 197.818182 55.854545 265.309091C93.090909 877.381818 146.618182 930.909091 214.109091 968.145455c67.490909 37.236364 146.618182 55.854545 265.309091 55.854545h62.836363c118.690909 0 197.818182-18.618182 265.309091-55.854545 67.490909-37.236364 121.018182-90.763636 158.254546-158.254546 37.236364-67.490909 55.854545-146.618182 55.854545-265.309091v-62.836363c2.327273-121.018182-16.290909-200.145455-53.527272-267.636364zM698.181818 707.490909c16.290909 0 30.254545 13.963636 30.254546 30.254546 0 16.290909-13.963636 30.254545-30.254546 30.254545h-209.454545c-139.636364 0-253.672727-114.036364-253.672728-256s116.363636-256 258.327273-256c141.963636 2.327273 253.672727 121.018182 251.345455 260.654545-2.327273 76.8-37.236364 144.290909-93.090909 190.836364h46.545454z" /></svg>