<?xml version="1.0" standalone="no"?><!DOCTYPE svg PUBLIC "-//W3C//DTD SVG 1.1//EN" "http://www.w3.org/Graphics/SVG/1.1/DTD/svg11.dtd"><svg class="icon" width="200px" height="200.00px" viewBox="0 0 1024 1024" version="1.1" xmlns="http://www.w3.org/2000/svg"><path fill="#8158ff" d="M512 339.781818m-30.254545 0a30.254545 30.254545 0 1 0 60.50909 0 30.254545 30.254545 0 1 0-60.50909 0ZM407.272727 642.327273c2.327273 4.654545 6.981818 4.654545 13.963637 4.654545 4.654545 0 9.309091-2.327273 13.963636-4.654545 6.981818-6.981818 6.981818-18.618182 0-25.6l-30.254545-30.254546 30.254545-30.254545c6.981818-6.981818 6.981818-18.618182 0-25.6-2.327273-4.654545-6.981818-4.654545-13.963636-4.654546-4.654545 0-9.309091 2.327273-13.963637 4.654546l-41.890909 44.218182c-4.654545 4.654545-4.654545 9.309091-4.654545 13.963636 0 4.654545 2.327273 9.309091 4.654545 13.963636l41.890909 39.563637zM463.127273 705.163636c2.327273 0 4.654545 2.327273 6.981818 2.327273 6.981818 0 13.963636-4.654545 16.290909-11.636364l69.818182-176.872727c4.654545-9.309091 0-20.945455-9.309091-23.272727-4.654545-2.327273-9.309091-2.327273-13.963636 0-4.654545 2.327273-6.981818 4.654545-9.309091 9.309091l-69.818182 176.872727c-4.654545 9.309091 0 18.618182 9.309091 23.272727zM621.381818 584.145455l-30.254545 30.254545c-6.981818 6.981818-6.981818 18.618182 0 25.6 2.327273 2.327273 6.981818 4.654545 13.963636 4.654545 4.654545 0 9.309091-2.327273 13.963636-4.654545l41.89091-44.218182c4.654545-4.654545 4.654545-9.309091 4.654545-13.963636 0-4.654545-2.327273-9.309091-4.654545-13.963637l-41.89091-44.218181c-2.327273-4.654545-6.981818-4.654545-13.963636-4.654546-4.654545 0-9.309091 2.327273-13.963636 4.654546-6.981818 6.981818-6.981818 18.618182 0 25.6l30.254545 34.909091zM602.763636 339.781818m-30.254545 0a30.254545 30.254545 0 1 0 60.509091 0 30.254545 30.254545 0 1 0-60.509091 0ZM968.145455 214.109091C930.909091 146.618182 877.381818 93.090909 809.890909 55.854545 742.4 18.618182 663.272727 0 542.254545 0h-62.836363c-118.690909 0-197.818182 18.618182-265.309091 55.854545C146.618182 93.090909 93.090909 146.618182 55.854545 214.109091 18.618182 281.6 0 360.727273 0 481.745455v62.836363c0 118.690909 18.618182 197.818182 55.854545 265.309091C93.090909 877.381818 146.618182 930.909091 214.109091 968.145455c67.490909 37.236364 146.618182 55.854545 265.309091 55.854545h62.836363c118.690909 0 197.818182-18.618182 265.309091-55.854545 67.490909-37.236364 121.018182-90.763636 158.254546-158.254546 37.236364-67.490909 55.854545-146.618182 55.854545-265.309091v-62.836363c2.327273-121.018182-16.290909-200.145455-53.527272-267.636364z m-211.781819 493.381818c0 32.581818-27.927273 60.509091-60.509091 60.509091H328.145455c-32.581818 0-60.509091-27.927273-60.509091-60.509091V432.872727h488.727272v274.618182z m0-307.2h-488.727272v-60.509091c0-32.581818 27.927273-60.509091 60.509091-60.509091h367.70909c32.581818 0 60.509091 27.927273 60.509091 60.509091v60.509091zM695.854545 339.781818m-30.254545 0a30.254545 30.254545 0 1 0 60.509091 0 30.254545 30.254545 0 1 0-60.509091 0Z" /></svg>