<?xml version="1.0" standalone="no"?><!DOCTYPE svg PUBLIC "-//W3C//DTD SVG 1.1//EN" "http://www.w3.org/Graphics/SVG/1.1/DTD/svg11.dtd"><svg class="icon" width="200px" height="200.00px" viewBox="0 0 1024 1024" version="1.1" xmlns="http://www.w3.org/2000/svg"><path fill="#333333" d="M451.490909 633.018182h41.890909V674.909091c0 6.981818 2.327273 11.636364 9.309091 16.290909 4.654545 2.327273 11.636364 2.327273 18.618182 0 4.654545-2.327273 9.309091-9.309091 9.309091-16.290909v-41.890909h41.890909c9.309091 0 18.618182-6.981818 18.618182-18.618182 0-9.309091-6.981818-18.618182-18.618182-18.618182h-41.890909v-41.890909c0-6.981818-2.327273-11.636364-9.309091-16.290909-4.654545-2.327273-11.636364-2.327273-18.618182 0-4.654545 2.327273-9.309091 9.309091-9.309091 16.290909v41.890909h-41.890909c-6.981818 0-11.636364 2.327273-16.290909 9.309091s-2.327273 11.636364 0 18.618182 11.636364 9.309091 16.290909 9.309091zM621.381818 307.2h-218.763636c-6.981818 0-13.963636 4.654545-13.963637 13.963636v25.6h244.363637v-25.6c0-9.309091-4.654545-13.963636-11.636364-13.963636zM968.145455 214.109091C930.909091 146.618182 877.381818 93.090909 809.890909 55.854545 742.4 18.618182 663.272727 0 542.254545 0h-62.836363c-118.690909 0-197.818182 18.618182-265.309091 55.854545C146.618182 93.090909 93.090909 146.618182 55.854545 214.109091 18.618182 281.6 0 360.727273 0 481.745455v62.836363c0 118.690909 18.618182 197.818182 55.854545 265.309091C93.090909 877.381818 146.618182 930.909091 214.109091 968.145455c67.490909 37.236364 146.618182 55.854545 265.309091 55.854545h62.836363c118.690909 0 197.818182-18.618182 265.309091-55.854545 67.490909-37.236364 121.018182-90.763636 158.254546-158.254546 37.236364-67.490909 55.854545-146.618182 55.854545-265.309091v-62.836363c2.327273-121.018182-16.290909-200.145455-53.527272-267.636364z m-211.781819 465.454545c0 41.890909-34.909091 76.8-76.8 76.8H344.436364c-41.890909 0-76.8-34.909091-76.8-76.8v-204.8h488.727272v204.8z m0-232.727272h-488.727272v-25.6c0-41.890909 34.909091-76.8 76.8-76.8h6.981818v-25.6c0-13.963636 4.654545-25.6 13.963636-37.236364s23.272727-13.963636 37.236364-13.963636h218.763636c13.963636 0 25.6 4.654545 37.236364 13.963636s13.963636 23.272727 13.963636 37.236364v25.6h6.981818c41.890909 0 76.8 34.909091 76.8 76.8v25.6z" /></svg>