<?xml version="1.0" standalone="no"?><!DOCTYPE svg PUBLIC "-//W3C//DTD SVG 1.1//EN" "http://www.w3.org/Graphics/SVG/1.1/DTD/svg11.dtd"><svg class="icon" width="200px" height="200.00px" viewBox="0 0 1024 1024" version="1.1" xmlns="http://www.w3.org/2000/svg"><path fill="#333333" d="M968.145455 214.109091C930.909091 146.618182 877.381818 93.090909 809.890909 55.854545 742.4 18.618182 663.272727 0 542.254545 0h-62.836363c-118.690909 0-197.818182 18.618182-265.309091 55.854545C146.618182 93.090909 93.090909 146.618182 55.854545 214.109091 18.618182 281.6 0 360.727273 0 481.745455v62.836363c0 118.690909 18.618182 197.818182 55.854545 265.309091C93.090909 877.381818 146.618182 930.909091 214.109091 968.145455c67.490909 37.236364 146.618182 55.854545 265.309091 55.854545h62.836363c118.690909 0 197.818182-18.618182 265.309091-55.854545 67.490909-37.236364 121.018182-90.763636 158.254546-158.254546 37.236364-67.490909 55.854545-146.618182 55.854545-265.309091v-62.836363c2.327273-121.018182-16.290909-200.145455-53.527272-267.636364z m-556.218182 535.272727c-30.254545-11.636364-55.854545-30.254545-81.454546-55.854545-23.272727-23.272727-41.890909-51.2-55.854545-81.454546-11.636364-30.254545-18.618182-60.509091-20.945455-93.090909 27.927273 4.654545 55.854545 11.636364 83.781818 27.927273 27.927273 13.963636 55.854545 32.581818 79.127273 58.181818 25.6 25.6 44.218182 51.2 58.181818 79.127273 13.963636 27.927273 23.272727 55.854545 25.6 83.781818-27.927273 0-58.181818-6.981818-88.436363-18.618182zM744.727273 619.054545c-11.636364 27.927273-30.254545 51.2-51.2 74.472728-23.272727 23.272727-46.545455 39.563636-74.472728 51.2-27.927273 11.636364-55.854545 18.618182-83.781818 23.272727-4.654545-32.581818-13.963636-62.836364-30.254545-95.418182-16.290909-32.581818-37.236364-62.836364-65.163637-88.436363-27.927273-27.927273-58.181818-48.872727-88.436363-65.163637-32.581818-16.290909-62.836364-25.6-95.418182-27.927273 2.327273-27.927273 9.309091-55.854545 23.272727-83.781818 11.636364-27.927273 30.254545-51.2 51.2-74.472727 23.272727-20.945455 46.545455-39.563636 74.472728-51.2 25.6-11.636364 55.854545-20.945455 83.781818-23.272727 4.654545 32.581818 13.963636 62.836364 27.927272 95.418182 16.290909 32.581818 37.236364 62.836364 65.163637 88.436363 27.927273 27.927273 58.181818 48.872727 88.436363 65.163637 32.581818 16.290909 62.836364 25.6 95.418182 30.254545-2.327273 27.927273-9.309091 55.854545-20.945454 81.454545z m-60.509091-141.963636c-27.927273-13.963636-55.854545-32.581818-79.127273-58.181818-25.6-25.6-44.218182-51.2-58.181818-79.127273-13.963636-27.927273-23.272727-55.854545-27.927273-83.781818 32.581818 0 62.836364 6.981818 93.090909 20.945455 30.254545 11.636364 55.854545 30.254545 81.454546 55.854545 23.272727 23.272727 41.890909 51.2 55.854545 81.454545 11.636364 30.254545 18.618182 60.509091 18.618182 93.09091-27.927273-6.981818-55.854545-16.290909-83.781818-30.254546z" /></svg>